<svg width="24" height="24" viewBox="0 0 24 24" fill="none" xmlns="http://www.w3.org/2000/svg">
<g clip-path="url(#clip0_10402_69)">
<path d="M4.00004 22.6666C3.82323 22.6666 3.65366 22.5963 3.52864 22.4713C3.40361 22.3463 3.33337 22.1767 3.33337 21.9999V1.99992C3.33337 1.82311 3.40361 1.65354 3.52864 1.52851C3.65366 1.40349 3.82323 1.33325 4.00004 1.33325C4.17685 1.33325 4.34642 1.40349 4.47145 1.52851C4.59647 1.65354 4.66671 1.82311 4.66671 1.99992V21.9999C4.66671 22.1767 4.59647 22.3463 4.47145 22.4713C4.34642 22.5963 4.17685 22.6666 4.00004 22.6666Z" fill="#666666"/>
<path d="M20.3667 2.54669C20.2653 2.48818 20.1504 2.45738 20.0333 2.45738C19.9163 2.45738 19.8013 2.48818 19.7 2.54669C18.4076 3.08996 17.0149 3.35352 15.6133 3.32002C14.4058 3.23187 13.2298 2.8936 12.16 2.32669C11.1268 1.77953 9.99227 1.4505 8.82667 1.36002C7.85787 1.34979 6.8968 1.53339 6 1.90002V3.38669C6.86856 2.91146 7.84326 2.66377 8.83333 2.66669C9.81383 2.76361 10.7654 3.05363 11.6333 3.52003C12.8731 4.16834 14.2366 4.54557 15.6333 4.62669C16.8871 4.63055 18.1343 4.44628 19.3333 4.08002V12.6334C18.1393 13.0566 16.8801 13.2665 15.6133 13.2534C14.4058 13.1652 13.2298 12.8269 12.16 12.26C11.1268 11.7129 9.99227 11.3838 8.82667 11.2934C7.85606 11.2916 6.89492 11.4843 6 11.86V13.3334C6.86856 12.8581 7.84326 12.6104 8.83333 12.6134C9.81383 12.7103 10.7654 13.0003 11.6333 13.4667C12.8731 14.115 14.2366 14.4922 15.6333 14.5734C17.2363 14.6065 18.8278 14.295 20.3 13.66C20.4099 13.6046 20.5024 13.5199 20.5671 13.4151C20.6318 13.3104 20.6663 13.1898 20.6667 13.0667V3.11336C20.6683 3.0013 20.6417 2.89064 20.5893 2.79159C20.5368 2.69255 20.4603 2.60832 20.3667 2.54669Z" fill="#666666"/>
</g>
<defs>
<clipPath id="clip0_10402_69">
<rect width="24" height="24" fill="white"/>
</clipPath>
</defs>
</svg>
