<svg width="70" height="70" viewBox="0 0 70 70" fill="none" xmlns="http://www.w3.org/2000/svg">
<g clip-path="url(#clip0_10402_9)">
<path d="M15.2473 42.5867L15.1792 41.66H14.25L9.79766 41.66C9.79722 41.66 9.79678 41.66 9.79634 41.66C9.08938 41.6578 8.41041 41.3834 7.90041 40.8938L7.20966 41.6132L7.90041 40.8938C7.39009 40.4038 7.08821 39.7361 7.05752 39.0293C7.02684 38.3225 7.2697 37.6311 7.73563 37.0988C8.18786 36.5821 8.81646 36.2539 9.49729 36.1773L9.7546 36.189L9.77729 36.19H9.80001H60.205H60.2281L60.2511 36.1889L60.503 36.1773C61.1838 36.254 61.8122 36.5822 62.2644 37.0988C62.7303 37.6311 62.9732 38.3225 62.9425 39.0293C62.9118 39.7361 62.6099 40.4038 62.0996 40.8938C61.5896 41.3834 60.9106 41.6578 60.2037 41.66C60.2032 41.66 60.2028 41.66 60.2024 41.66L55.75 41.66H54.8208L54.7527 42.5867L52.9527 67.0817L52.9526 67.083C52.9253 67.4608 52.7562 67.8143 52.479 68.0725C52.2019 68.3307 51.8374 68.4745 51.4586 68.475H18.5413C18.163 68.4745 17.7988 68.3311 17.5218 68.0736C17.2448 67.816 17.0753 67.4634 17.0473 67.0862C17.0473 67.0861 17.0473 67.0861 17.0473 67.086L15.2473 42.5867ZM42.2307 57.0517L42.2306 57.0509L41.8195 54.6543L43.5627 52.9564C43.5627 52.9564 43.5627 52.9564 43.5628 52.9563C44.0307 52.5006 44.3618 51.923 44.5185 51.2888C44.6752 50.6547 44.6514 49.9893 44.4496 49.368C44.2479 48.7468 43.8763 48.1943 43.3769 47.7733C42.8777 47.3524 42.2708 47.0796 41.6248 46.9855C41.6244 46.9855 41.6241 46.9854 41.6237 46.9854L39.2141 46.6317L38.137 44.453C37.8485 43.8674 37.4019 43.3742 36.8477 43.029C36.2935 42.6839 35.6539 42.5007 35.001 42.5H34.999C34.3534 42.5007 33.7126 42.6751 33.1523 43.024L33.681 43.8729L33.1523 43.024C32.5983 43.3691 32.1518 43.8621 31.8632 44.4475C31.8631 44.4477 31.8631 44.4478 31.863 44.448L30.786 46.6309L28.3765 46.9804L28.3763 46.9804C27.7299 47.0743 27.1226 47.3472 26.6232 47.7682L27.2678 48.5328L26.6232 47.7682C26.1238 48.1893 25.7522 48.7418 25.5504 49.363C25.3486 49.9843 25.3248 50.6497 25.4815 51.2838C25.6383 51.918 25.9693 52.4956 26.4373 52.9513C26.4373 52.9514 26.4373 52.9514 26.4373 52.9514L28.1805 54.6493L27.7694 57.0459L27.7693 57.0467C27.6595 57.6899 27.7316 58.351 27.9776 58.9553C28.2236 59.5597 28.6337 60.0832 29.1614 60.4668C29.6892 60.8505 30.3138 61.079 30.9645 61.1265C31.6153 61.174 32.2664 61.0386 32.8443 60.7357L32.8447 60.7355L34.9992 59.6048L37.154 60.7398L37.1557 60.7407C37.7337 61.0436 38.3847 61.179 39.0355 61.1315C39.6863 61.084 40.3108 60.8555 40.8386 60.4719C41.3664 60.0882 41.7764 59.5647 42.0224 58.9603C42.2684 58.356 42.3406 57.6949 42.2307 57.0517ZM40.2326 13.6326C38.8448 15.0204 36.9626 15.8 35 15.8C33.0374 15.8 31.1552 15.0204 29.7674 13.6326C28.3797 12.2448 27.6 10.3626 27.6 8.4C27.6 6.4374 28.3797 4.55518 29.7674 3.16741C31.1552 1.77964 33.0374 1 35 1C36.9626 1 38.8448 1.77964 40.2326 3.16741C41.6204 4.55518 42.4 6.4374 42.4 8.4C42.4 10.3626 41.6204 12.2448 40.2326 13.6326ZM23.294 27.94C24.2483 25.9682 25.6892 24.2618 27.4905 22.9879C29.6865 21.4347 32.3102 20.6006 35 20.6006C37.6898 20.6006 40.3135 21.4347 42.5095 22.9879C44.3108 24.2618 45.7517 25.9682 46.706 27.94H23.294Z" stroke="#666666" stroke-width="2"/>
</g>
<defs>
<clipPath id="clip0_10402_9">
<rect width="70" height="70" fill="white"/>
</clipPath>
</defs>
</svg>
