<svg width="24" height="24" viewBox="0 0 24 24" fill="none" xmlns="http://www.w3.org/2000/svg">
<g clip-path="url(#clip0_8405_306)">
<path d="M22.3933 4.12666C22.3115 4.06012 22.215 4.01394 22.1119 3.99192C22.0088 3.9699 21.9019 3.97267 21.8 4L15.3933 6L8.97332 2.74C8.88556 2.69938 8.79002 2.67834 8.69332 2.67834C8.59662 2.67834 8.50108 2.69938 8.41332 2.74L1.74665 5.46666C1.62386 5.51711 1.51892 5.60307 1.44528 5.71352C1.37164 5.82398 1.33266 5.95391 1.33332 6.08666V19.74C1.33387 19.8492 1.36122 19.9566 1.41298 20.0527C1.46474 20.1489 1.53933 20.2308 1.63018 20.2914C1.72103 20.3519 1.82537 20.3893 1.93402 20.4001C2.04268 20.4109 2.15232 20.3948 2.25332 20.3533L8.66665 17.72L15.06 21C15.1549 21.0486 15.26 21.0738 15.3667 21.0733C15.4329 21.0834 15.5004 21.0834 15.5667 21.0733L22.2333 18.9933C22.3738 18.9493 22.4958 18.8601 22.5802 18.7395C22.6646 18.6189 22.7067 18.4737 22.7 18.3267V4.66666C22.6965 4.55852 22.6668 4.45285 22.6134 4.35877C22.5599 4.26469 22.4844 4.18503 22.3933 4.12666ZM21.3333 17.8333L15.7867 19.5667V18.04H14.72V19.3733L9.11999 16.5V15.3733H8.05332V16.52L2.66665 18.74V6.52666L8.05332 4.30666V5.87333H9.11999V4.31333L14.72 7.18V8.58H15.7867V7.33333L21.3333 5.57333V17.8333Z" fill="#666"/>
<path d="M14.72 10.04H15.7867V12.58H14.72V10.04Z" fill="#6666"/>
<path d="M14.72 14.04H15.7867V16.58H14.72V14.04Z" fill="#6666"/>
<path d="M8.05334 7.37335H9.12001V9.91335H8.05334V7.37335Z" fill="#6666"/>
<path d="M8.05334 11.42H9.12001V13.92H8.05334V11.42Z" fill="#6666"/>
</g>
<defs>
<clipPath id="clip0_8405_306">
<rect width="24" height="24" fill="white"/>
</clipPath>
</defs>
</svg>
